<svg xmlns="http://www.w3.org/2000/svg" id="Barwood_Logo" width="243" height="42.827" viewBox="0 0 243 42.827">
  <path id="Path_198" data-name="Path 198" d="M86.4,279.848c5.776,0,9.477-2.993,9.477-8.462,0-5.057-3.6-8.393-10.618-8.393H81.594v16.856Zm-4.807-19.3h4.185c5.6,0,8.716-2.821,8.716-7.465,0-5.47-3.908-7.912-8.854-7.912-1.626,0-2.905.069-4.081.138V260.55Zm21.685,10.629c0,6.949-5.949,11.18-15.494,11.18H69.8v-1.238c3.666-.413,4.669-1.548,4.669-4.919V248.854c0-3.371-.968-4.438-4.565-4.85v-1.2H86.989c8.819,0,14.837,2.89,14.837,9.391,0,5.538-4.116,8.428-10.307,9.391,7.056.688,11.759,3.646,11.759,9.6" transform="translate(-69.8 -240.186)" fill="#280f44"/>
  <path id="Path_199" data-name="Path 199" d="M191.485,286.262l-2.144.757c-4.462,1.754-8.2,3.784-8.2,7.637a4.111,4.111,0,0,0,4.392,4.438c2.974,0,4.738-1.858,5.949-3.646ZM187.577,273.5c5.5,0,10.549,2.27,10.549,8.6v15.067c0,1.41.519,2.133,1.556,2.133a3.707,3.707,0,0,0,2.179-.757l.761.86c-1.245,1.926-3.113,3.75-5.88,3.75-3.044,0-5.015-1.961-5.015-5.263v-.482a9.926,9.926,0,0,1-9.165,5.745c-4.565,0-8.162-2.477-8.162-7.086,0-5.882,6.191-7.912,12.174-9.907l4.877-1.651V281.1c.035-7.6-3.874-7.6-3.874-7.6" transform="translate(-138.223 -260.325)" fill="#280f44"/>
  <path id="Path_200" data-name="Path 200" d="M271.037,273.882v22.394c0,3.371,1.349,4.506,6.329,4.919v1.238H259.9v-1.238c3.493-.413,4.392-1.548,4.392-4.919V280.727c0-3.027-1-4.094-4.116-4.128v-1.2l10.307-2Z" transform="translate(-194.152 -260.259)" fill="#280f44"/>
  <path id="Path_201" data-name="Path 201" d="M367.169,275.2h9.649v1.2c-1.937.413-2.767,1.445-3.943,4.575l-8.646,22.944H360.84l-6.813-17.647-6.71,17.647h-3.424l-8.75-22.944c-1.211-3.13-2.006-4.162-3.943-4.575v-1.2h13.039v1.2c-2.629.344-3.355,1.582-2.075,5.022l5.257,14.173,5.084-13.347-.484-1.238c-1.211-3.13-2.006-4.162-3.943-4.575v-1.2h13.35v1.2c-2.905.344-3.77,1.582-2.456,5.022l5.326,14.173,5.326-14.173c1.28-3.44.45-4.678-2.456-5.022V275.2Z" transform="translate(-240.793 -261.44)" fill="#280f44"/>
  <path id="Path_202" data-name="Path 202" d="M472.164,275.708c-4.462,0-7.332,4.782-7.332,11.765,0,7.74,3.216,13.106,8.024,13.106,4.462,0,7.332-4.781,7.332-11.765,0-7.74-3.251-13.106-8.024-13.106m.346,27.313c-8.439,0-15.01-5.194-15.01-14.861s6.571-14.861,15.01-14.861,15.01,5.194,15.01,14.861-6.571,14.861-15.01,14.861" transform="translate(-323.411 -260.194)" fill="#280f44"/>
  <path id="Path_203" data-name="Path 203" d="M566.764,275.708c-4.462,0-7.332,4.782-7.332,11.765,0,7.74,3.216,13.106,8.024,13.106,4.462,0,7.332-4.781,7.332-11.765,0-7.74-3.251-13.106-8.024-13.106m.346,27.313c-8.439,0-15.01-5.194-15.01-14.861s6.571-14.861,15.01-14.861,15.01,5.194,15.01,14.861-6.571,14.861-15.01,14.861" transform="translate(-385.293 -260.194)" fill="#280f44"/>
  <path id="Path_204" data-name="Path 204" d="M666.937,271.388V253.225a6.087,6.087,0,0,0-5.119-2.511c-4.842,0-8.058,4.472-8.058,11.833,0,7.4,3.32,11.868,7.609,11.868a6.236,6.236,0,0,0,5.568-3.027m10.894,3.784v1.238L667.7,278.027l-.346-.31v-4.334a9.566,9.566,0,0,1-8.577,4.541c-6.64,0-12.174-5.16-12.174-14.069,0-10.251,6.122-15.514,15.529-15.514a15.922,15.922,0,0,1,4.807.791v-6.639c0-3.027-.968-4.094-4.116-4.128V237.2l10.514-2,.346.31v35.5c0,3.1,1,4.2,4.15,4.162" transform="translate(-447.109 -235.2)" fill="#280f44"/>
  <path id="Path_205" data-name="Path 205" d="M757.224,340.822a4.013,4.013,0,1,0-4.012,3.922,3.968,3.968,0,0,0,4.012-3.922" transform="translate(-514.224 -301.916)" fill="#280f44"/>
  <path id="Path_206" data-name="Path 206" d="M308.924,277.422a4.013,4.013,0,1,0-4.012,3.922,3.968,3.968,0,0,0,4.012-3.922" transform="translate(-220.972 -260.325)" fill="#280f44"/>
  <path id="Path_207" data-name="Path 207" d="M191.024,280.122a4.013,4.013,0,1,0-4.012,3.922,3.968,3.968,0,0,0,4.012-3.922" transform="translate(-143.849 -262.096)" fill="#280f44"/>
</svg>
